<?xml version="1.0" encoding="utf-8"?>
<!-- Generator: Adobe Illustrator 24.0.0, SVG Export Plug-In . SVG Version: 6.00 Build 0)  -->
<svg version="1.1" id="图层_1" xmlns="http://www.w3.org/2000/svg" xmlns:xlink="http://www.w3.org/1999/xlink" x="0px" y="0px"
	 viewBox="0 0 595.28 841.89" style="enable-background:new 0 0 595.28 841.89;" xml:space="preserve">
<style type="text/css">
	.st0{fill:#245E59;}
	.st1{fill:#8FB53C;}
	.st2{fill:#8FB53D;}
	.st3{fill:#1C4A45;}
	.st4{fill:#1C4945;}
	.st5{fill:#90B53B;}
	.st6{fill:#8FB53B;}
	.st7{fill:#EEF5E1;}
	.st8{fill:#EDF4E1;}
	.st9{fill:#F9FBFB;}
	.st10{fill:#F8FBFB;}
	.st11{fill:#FAFBFC;}
	.st12{fill:#F9FAFA;}
	.st13{fill:#7B9D2E;}
	.st14{fill:#698633;}
	.st15{fill:#90B63C;}
	.st16{fill:#95B642;}
	.st17{fill:#E6EECD;}
	.st18{fill:#82BA2F;}
	.st19{fill:#84BC35;}
	.st20{fill:#84BC34;}
	.st21{fill:#86BC38;}
	.st22{fill:#85BC36;}
	.st23{fill:#98C655;}
	.st24{fill:#A3CB64;}
	.st25{fill:#A4CC67;}
	.st26{fill:#F0F6E6;}
	.st27{fill:#9BC85A;}
	.st28{fill:#BBD98F;}
	.st29{fill:#94C44E;}
	.st30{fill:#D4E6B8;}
	.st31{fill:#98C554;}
	.st32{fill:#B4D581;}
	.st33{fill:#B0D37D;}
	.st34{fill:#DAEAC3;}
	.st35{fill:#A6CD69;}
	.st36{fill:#A3CC64;}
	.st37{fill:#D9EAC1;}
	.st38{fill:#C2DD9B;}
	.st39{fill:#B4D582;}
	.st40{fill:#DFEDCC;}
	.st41{fill:#B3D383;}
	.st42{fill:#BCD990;}
	.st43{fill:#B5D584;}
	.st44{fill:#B6D585;}
	.st45{fill:#E2EFCF;}
	.st46{fill:#E6F0D7;}
	.st47{fill:#FEFEFC;}
</style>
<g>
	<path class="st0" d="M403.96,406.98c5.28,0.23,5.28,0.23,5.28,5.51c0,2.64,0.13,5.28-0.05,7.9c-0.14,2.03,0.5,2.66,2.54,2.63
		c6.58-0.11,13.17-0.06,19.76,0c0.88,0.01,1.98-0.58,2.66,0.55c-1.26,1.15-2.84,1.02-4.36,1.03c-5.26,0.04-10.51-0.03-15.77,0.03
		c-3.44,0.04-3.78,0.35-3.8,3.77c-0.06,8.65,0.01,17.31-0.03,25.96c-0.03,5.72-0.79,6.49-6.43,6.54c-1.86,0.02-3.72,0.14-5.58,0.19
		c-5.7-0.46-11.43-0.04-17.13-0.27c-0.82-0.05-1.64,0.08-2.46,0c-3.54,0.09-7.07,0.12-10.61,0.02c-0.88,0.12-1.75,0.11-2.63,0.11
		c-51.25,0-102.5,0-153.75,0c-0.88,0-1.76,0.02-2.63-0.11c-3.53,0.08-7.06,0.1-10.58-0.03c-0.81,0.07-1.63-0.06-2.44,0.04
		c-5.61,0.08-11.22-0.13-16.83,0.19c-2.19-0.15-4.38-0.17-6.57-0.21c-4.35-0.07-5.75-1.39-5.81-5.73c-0.11-9.1-0.15-18.2,0.03-27.3
		c0.05-2.62-0.65-3.37-3.28-3.29c-6.35,0.2-12.71,0.08-19.07,0.06c-1.52-0.01-3.1,0.14-4.36-1.02c0.73-1.05,1.83-0.55,2.75-0.56
		c7.37-0.04,14.73-0.14,22.1,0.04c2.42,0.06,2.97-0.73,2.85-2.96c-0.17-3.18,0.13-6.39-0.1-9.56c-0.2-2.66,0.46-3.96,3.35-3.42
		c0.62,0.12,1.31-0.09,1.96-0.14c1.86-1.33,4-0.88,6.04-0.91c3.17-0.03,6.34-0.12,9.5,0.06c1.04-0.03,2.07-0.06,3.11,0
		c3.12-0.12,6.25-0.09,9.37-0.02c0.87-0.15,1.75-0.11,2.63-0.11c56.41,0,112.82,0,169.22,0c0.99,0,1.98-0.05,2.96,0.1
		c3.13-0.06,6.26-0.11,9.38,0.02c1.04-0.05,2.08-0.04,3.12,0c3.99-0.18,7.97-0.06,11.96-0.07
		C401.58,406.04,402.87,406.14,403.96,406.98z"/>
	<path class="st1" d="M403.96,406.98c-5.29,0-10.58,0-15.87,0.01c-2.23-3.79-2.29-8.2-3.39-12.3c-3.52-13.18-9.72-24.91-18.09-35.59
		c-8.53-10.88-18.84-19.71-31.05-26.13c-13.17-6.93-27.13-11.34-42.2-11.47c-8.12-0.07-16.27-0.38-24.28,1.4
		c-8.72,1.94-17.16,4.77-25.16,8.74c-9.22,4.57-17.45,10.59-24.86,17.73c-12.79,12.34-21.47,27.15-26.45,44.18
		c-0.96,3.28-1.87,6.54-2.31,9.94c-0.17,1.31-0.37,2.64-1.62,3.46c-5.24,0.25-10.49,0.31-15.73,0c0.94-9.65,3.35-18.93,6.79-27.98
		c5.02-13.21,12.29-25.12,21.65-35.6c9.75-10.92,21.21-19.84,34.4-26.39c17-8.45,34.88-12.69,53.98-12.38
		c10.63,0.17,21.07,1.25,31.11,4.38c11.95,3.72,23.26,8.79,33.69,16.18c11.09,7.86,20.59,17.01,28.52,27.89
		c5.59,7.68,9.81,16.04,13.39,24.93C400.3,387.43,402.82,396.97,403.96,406.98z"/>
	<path class="st2" d="M178.96,460.59c3.24-1.38,6.63-0.46,9.95-0.65c2.48-0.14,4.99,0.01,7.48,0.03c2.81,4.7,4.9,9.78,7.86,14.41
		c10.6,16.53,24.74,29.17,42.53,37.26c12.55,5.71,25.81,8.77,39.88,8.91c15.85,0.16,30.79-2.84,44.99-9.65
		c14.84-7.11,27.08-17.42,36.93-30.61c4.3-5.75,7.86-11.91,10.78-18.46c0.32-0.72,0.76-1.33,1.38-1.81
		c5.04-0.04,10.07-0.07,15.11-0.11c0.77-0.01,1.54-0.01,2.13,0.62c0.97,2.09-0.53,3.75-1.17,5.45c-1.11,2.97-1.97,6.19-4.71,8.26
		c-5.88,11.56-13.5,21.88-22.89,30.77c-13.17,12.45-28.39,21.43-45.74,27.09c-16.44,5.37-33.16,6.17-50.02,4.26
		c-20.26-2.29-38.56-9.95-54.9-22.26c-14.27-10.75-25.59-23.97-33.7-39.91c-1.46-0.45-1.85-1.79-2.31-2.98
		C181.17,467.73,178.77,464.59,178.96,460.59z"/>
	<path class="st3" d="M178.96,460.59c1.96,4.53,3.92,9.07,5.87,13.6c-14.93,0-29.87,0-45.04,0c0.96-3.1,2.8-5.57,4.23-8.22
		c2.61-4.82,5.25-9.64,8.12-14.31c1.32-2.15,1.32-3.78,0.01-5.98c-4.1-6.88-7.94-13.91-11.85-20.9c-0.19-0.34-0.16-0.81-0.24-1.22
		c8.46,0.02,16.92,0.09,25.38,0c2.01-0.02,2.4,0.45,2.37,2.51c-0.17,9.89-0.03,19.78-0.12,29.67c-0.03,2.93,1.06,4.19,4.06,4.17
		C174.14,459.9,176.68,459.05,178.96,460.59z"/>
	<path class="st4" d="M392.09,474.25c2.3-4.43,4.24-9,5.88-13.72c2.5-1.29,5.18-0.64,7.76-0.61c2.56,0.03,3.49-0.85,3.46-3.44
		c-0.1-9.87,0.05-19.74-0.1-29.61c-0.04-2.63,0.77-3.38,3.35-3.32c7.23,0.15,14.47,0.04,21.71,0.03
		c-2.51,6.67-5.97,12.92-9.52,19.03c-2.58,4.44-2.59,7.88,0.08,12.19c3.28,5.3,5.77,11.09,8.7,16.62c1.13,2.13,1.05,2.94-1.74,2.91
		C418.47,474.2,405.28,474.26,392.09,474.25z"/>
	<path class="st5" d="M376.28,407.02c-1.07-10.63-4.97-20.33-9.98-29.6c-5.78-10.71-13.7-19.85-23.34-27.1
		c-18.76-14.12-39.98-20.29-63.55-18c-14.93,1.45-28.64,6.29-40.86,14.78c-12.22,8.49-22.2,19.15-29.04,32.64
		c-3.74,7.37-6.46,15.02-8.35,23.02c-0.32,1.37-0.36,2.82-0.52,4.23c-3.08,0.19-6.16,0.32-9.23-0.06c-1.15-1.36-0.8-2.91-0.5-4.4
		c4.26-20.84,13.87-38.74,29.31-53.46c12.69-12.09,27.49-20.4,44.5-24.53c23.88-5.8,47.03-3.21,68.84,7.97
		c21.68,11.12,37.26,28.29,46.8,50.8c2.58,6.08,4.39,12.41,5.65,18.9c0.31,1.6,0.66,3.28-0.62,4.7
		C382.35,407.34,379.32,407.09,376.28,407.02z"/>
	<path class="st6" d="M208.6,460.08c1.89,5.31,5.07,9.97,8.44,14.31c5.21,6.71,11.16,12.82,18.06,17.94
		c11.15,8.26,23.47,13.86,37.13,16.27c14.61,2.58,29.05,1.9,43.24-2.73c23.23-7.58,40.39-22.34,52.07-43.68
		c0.38-0.69,0.72-1.35,0.74-2.14c3.49,0.02,6.98,0.04,10.47,0.05c-0.28,4.97-3.32,8.78-5.73,12.72
		c-7.08,11.57-16.29,21.27-27.31,29.15c-9.91,7.08-20.76,12.19-32.7,15.04c-7.29,1.74-14.59,2.96-22.09,3.13
		c-18.44,0.42-35.72-3.86-51.67-13.09c-18-10.41-31.5-25.08-40.47-43.87c-0.45-0.95-1.15-1.94-0.38-3.08
		C201.8,459.73,205.2,459.82,208.6,460.08z"/>
	<path class="st7" d="M385.38,406.9c0.11-5.8-1.66-11.25-3.43-16.64c-5.96-18.22-16.56-33.42-31.31-45.52
		c-15.04-12.34-32.37-19.58-51.84-21.58c-22.86-2.35-44.08,2.54-63.3,14.91c-15.19,9.78-27.04,22.79-35.05,39.27
		c-3.91,8.05-6.61,16.37-8.55,25.02c-0.33,1.48-0.34,3.04-0.49,4.56c-0.9,0.01-1.81,0.02-2.71,0.04
		c2.12-13.31,6.34-25.9,13.33-37.44c12.75-21.03,30.73-35.58,53.98-43.86c14.1-5.03,28.57-6.23,43.16-4.84
		c16.56,1.58,31.91,7.27,45.71,16.8c12.57,8.69,22.82,19.53,30.57,32.73c6.67,11.37,10.89,23.57,12.64,36.64
		C387.18,406.96,386.28,406.93,385.38,406.9z"/>
	<path class="st8" d="M198.41,460.1c6.97,16.2,17.67,29.42,31.76,39.98c8.94,6.7,18.76,11.63,29.39,14.87
		c15.47,4.71,31.15,5.59,47.12,2.59c22.95-4.3,41.68-15.7,56.87-33.16c6.33-7.27,11.41-15.4,15.2-24.3
		c0.66-0.02,1.32-0.04,1.98-0.06c-3.21,10.06-9.15,18.54-15.95,26.38c-16.46,18.99-37.11,30.72-62.09,34.13
		c-15.24,2.08-30.25,0.96-45.09-3.87c-22.28-7.26-39.67-20.71-52.76-39.87c-3.53-5.17-7.13-10.47-8.46-16.82
		C197.06,460.01,197.73,460.05,198.41,460.1z"/>
	<path class="st9" d="M243.48,438.42c0-4.29,0.06-8.58-0.02-12.86c-0.04-2.35,0.8-3.4,3.28-3.32c4.06,0.13,8.13,0.03,12.2,0.02
		c1.58,0,3.43-0.06,3.44,2.05c0.01,2.22-1.88,2.37-3.6,2.37c-2.75,0.01-5.5,0.08-8.24-0.03c-1.74-0.07-2.49,0.3-2.53,2.3
		c-0.16,7.65-0.24,7.65,7.41,7.66c1.54,0,3.08,0.06,4.61,0.05c1.52-0.01,2.68,0.51,2.68,2.18c0,1.62-1.15,2.28-2.64,2.3
		c-3.19,0.04-6.38,0.11-9.56-0.01c-1.81-0.07-2.44,0.45-2.5,2.36c-0.21,7.28-0.28,7.28,7.1,7.28c1.65,0,3.3,0.02,4.94,0.01
		c1.52-0.01,2.3,0.99,2.3,2.25c0,1.3-0.87,2.18-2.37,2.17c-4.62-0.02-9.23-0.01-13.85,0.03c-2.32,0.02-2.65-1.48-2.65-3.3
		C243.48,447.43,243.48,442.93,243.48,438.42z"/>
	<path class="st10" d="M295.8,438.86c0-4.17,0.11-8.35-0.03-12.52c-0.1-3.01,1.15-4.15,4.11-4.05c4.06,0.14,8.12,0.07,12.18,0.05
		c1.62-0.01,2.98,0.49,3.01,2.25c0.03,1.79-1.29,2.29-2.95,2.26c-3.07-0.06-6.15,0.12-9.22-0.04c-2.1-0.11-2.53,0.68-2.54,2.64
		c-0.03,7.55-0.11,7.55,7.5,7.54c1.65,0,3.3-0.05,4.94,0.02c1.44,0.07,2.58,0.63,2.61,2.32c0.03,1.77-1.13,2.19-2.6,2.2
		c-3.18,0.01-6.38,0.17-9.55-0.03c-2.4-0.15-3.01,0.76-2.87,2.99c0.17,2.73,0.01,5.49,0.03,8.23c0.01,1.71-0.83,2.88-2.48,2.81
		c-1.51-0.06-2.13-1.33-2.13-2.83c0.01-2.31,0-4.61-0.01-6.92S295.79,441.16,295.8,438.86z"/>
	<path class="st11" d="M269.3,438.75c0-4.17-0.05-8.35,0.02-12.52c0.03-1.73-0.7-4.16,2.31-4.07c2.64,0.08,2.18,2.26,2.19,3.96
		c0.03,7.25,0.11,14.5-0.02,21.74c-0.04,2.24,0.46,3.14,2.86,2.95c2.95-0.23,5.92-0.12,8.89-0.08c1.5,0.02,2.92,0.3,2.93,2.29
		c0.01,2.01-1.33,2.22-2.9,2.22c-4.5-0.02-9-0.07-13.5,0.03c-2.23,0.05-2.84-0.99-2.8-3.01C269.35,447.76,269.3,443.26,269.3,438.75
		z"/>
	<path class="st12" d="M326.36,455.34c-0.88,0-1.75,0-2.63,0c-1.16,0-2.3-0.14-2.48-1.56c-0.17-1.29,0.12-2.49,1.7-2.66
		c1.4-0.15,1.41-1.02,1.41-2.09c-0.04-6.69-0.04-13.38-0.03-20.06c0-1.16,0.01-2.12-1.53-2.37c-1.19-0.19-1.9-1.1-1.63-2.4
		c0.28-1.35,1.09-2,2.58-1.92c2.08,0.11,4.16-0.01,6.24,0.04c1.07,0.02,1.92,0.48,2.08,1.69c0.16,1.21-0.12,2.44-1.43,2.54
		c-1.96,0.16-1.87,1.35-1.87,2.71c0.02,6.47-0.01,12.94,0.02,19.41c0,0.9-0.42,2.12,1.09,2.32c1.6,0.22,2.33,1.06,2.14,2.68
		c-0.23,1.97-1.78,1.56-3.02,1.65C328.12,455.39,327.24,455.34,326.36,455.34z"/>
	<path class="st13" d="M295.68,394.63c-5.98-8.81-12.75-16.92-21.09-23.61c-1.32-1.06-2.57-2.3-5.15-3.06
		c2.88,3.64,5.35,6.58,7.62,9.66c4.4,5.98,8.87,11.92,12.78,18.25c0.36,0.58,0.77,1.11,0.55,1.79c-0.26,0.8-0.9,0.37-1.38,0.28
		c-9.12-1.68-17.65-4.68-23.71-12.15c-4.96-6.12-7.7-13.47-10.43-20.77c-1.11-2.97-1.94-6.04-2.99-9.04
		c-0.66-1.9-0.31-2.99,1.89-3.06c11.55-0.41,22.48,1.49,32.01,8.61c5.57,3.12,8.45,8.29,10.66,13.97c2,5.15,1.48,10.54,1.28,15.87
		C297.69,392.69,297.49,394.26,295.68,394.63z"/>
	<path class="st14" d="M290.37,361.52c9.86-6.46,20.85-7.35,32.18-6.51c2.42,0.18,3.32,1,2.21,3.68
		c-3.14,7.6-6.37,15.14-10.74,22.14c-3.94,6.32-9.09,11.17-16.27,13.62c-1.22-0.94-0.25-1.99-0.19-3.01
		c0.21-3.51,0.42-7.07-0.05-10.53c-0.33-2.45,0.47-4.01,1.98-5.56c1.46-1.49,2.93-2.97,4.83-4.81c-2.16,1.17-3.67,2.36-5.24,3.47
		c-1.65,1.17-2.94,1.22-3.89-0.91c-1.39-3.12-3.05-6.08-5.58-8.47C288.19,363.29,288.56,362.19,290.37,361.52z"/>
	<path class="st15" d="M350.57,380.92c-1.19,2.25-2.4,2.79-3.51,3.46c-2.23,1.36-2.73,3.33-1.81,5.67c0.4,1.02,1.13,2.19,0.04,2.93
		c-0.97,0.65-1.68-0.45-2.39-1.15c-1.72-1.68-3.44-2.52-5.51-0.22c-0.7,0.77-1.81,1.63-3.15,1.5c-0.54-0.73-0.44-1.6-0.07-2.19
		c2.21-3.53,0.67-5.64-2.55-7.23c-0.67-0.33-1.49-0.88-1.32-1.69c0.21-0.99,1.26-0.61,1.96-0.65c5.28-0.32,5.28-0.31,6.9-5.34
		c0.16-0.5,0.27-1.01,0.41-1.53c0.33,0.08,0.68,0.09,0.7,0.17C341.4,379.84,343.88,383.15,350.57,380.92z"/>
	<path class="st16" d="M230.65,393.75c3.25-5.57,1.52-9.2-3.91-12.12c6.11,1.12,9.52-0.84,10.04-7.05c1.22,2.43,1.26,5.27,3.02,6.5
		c1.73,1.2,4.45-0.19,7.54,1.11c-5.62,2.34-7.16,5.96-3.99,11.51C238.91,389.33,234.97,389.3,230.65,393.75z"/>
	<path class="st17" d="M290.37,361.52c-0.73,0.84-1.28,1.49-0.16,2.65c2.53,2.61,4.48,5.65,5.74,9.09c0.46,1.27,1.05,1.32,2.07,0.51
		c2.46-1.95,5.01-3.78,8.4-4.59c-2.14,2.31-4.25,4.66-6.44,6.93c-1.44,1.5-2.06,3.01-1.78,5.26c0.55,4.34,0.14,8.74-0.43,13.09
		c-1.43,1.33-1.43,1.33-2.08,0.17c2.57-6.62,1.75-13.18-0.41-19.68c-1.8-5.4-5.49-9.52-9.47-13.41
		C287.33,361.53,288.85,361.53,290.37,361.52z"/>
</g>
<g>
	<path class="st18" d="M291.75,494.68c5.16-2.35,12.95-1.63,17.37,1.75c-1.39,0.07-2.61,0.09-3.81,0.21
		c-4.18,0.43-7.77,1.63-10.82,3.54c-4.63,2.91-9.98,4.49-16.6,3.93c-7.17-0.61-12.34-6.02-9.61-10.18
		c2.53-3.86,8.89-5.31,14.64-3.33c2.03,0.89,3.89,1.87,4.35,3.56c0.33,0.91,0.05,1.77-0.48,2.61c-0.85,0.95-1.48,2.02-3.2,2.49
		c-0.54,0.1-1.02,0.32-1.59,0.36c-0.66,0.05-1.3,0-1.74-0.38c-0.51-0.43-0.13-0.79,0.25-1.13c0.61-0.56,1.25-1.08,1.07-1.84
		c-0.33-1.39-1.99-2.27-3.82-1.99c-2.27,0.35-3.7,1.86-3.05,3.2c1,2.07,4.59,2.89,8.42,1.93c1.79-0.28,2.5-1.26,3.34-2.16
		C288.1,496.3,289.41,495.05,291.75,494.68z"/>
	<path class="st19" d="M297.81,471.47c-0.45-0.51-0.91-1.03-1.36-1.54c-0.21-0.24-0.29-0.51,0.09-0.66c0.4-0.15,0.7,0.06,0.92,0.28
		c1.56,1.55,3.18,3.07,4.64,4.66c0.53,0.57,0.9,0.66,1.6,0.23c1.36-0.85,3.1-1.26,4.78-1.76c3.13-0.94,5.17-2.59,6.69-4.55
		c0.38-0.49,0.44-1.1,1.26-1.45c1.13,2.98-2.52,6.24-6.16,7.65c-1.72,0.66-3.53,1.23-5.31,1.83c-0.96,0.32-1.42,0.76-1.2,1.51
		c1.25,4.29-2.77,6.83-7.36,9.11c-2.27,1.13-4.24,2.34-5.21,4.12c-0.25,0.17-0.36,0.42-0.68,0.56c-0.7,0.2-0.99,0.03-1.03-0.45
		c-0.05-0.63,0.47-1.16,0.7-1.73c0.7-1.54,2.48-2.54,4.29-3.48c2.3-1.2,4.19-2.57,5.42-4.32c0.6-0.83,1.07-1.68,0.48-2.62
		c-1.08,0-1.35,0.65-2.01,0.97c-0.3,0.23-0.6,0.47-0.91,0.7c-1.55-0.4-0.03-0.87-0.08-1.31c-0.02-0.49,0.6-0.73,1.02-1.01
		c1.8-1.22,2.63-2.56,1.43-4.21C299.35,473.09,298.95,472.15,297.81,471.47z"/>
	<path class="st20" d="M271.91,472.03c2.74,0.22,5.3,0.84,7.68,1.68c1.65,0.58,2.05,0.23,2.24-0.77c0.22-1.16,0.91-2.2,2.03-3.11
		c1.73-1.99,1.52-4.11,1-6.25l0.01,0.01c-0.25-0.33-0.39-0.7,0.09-0.93c0.36-0.18,0.68,0.05,0.86,0.29
		c2.62,2.62,2.28,5.32,0.58,8.07c-0.27,0.44-0.64,0.84-0.94,1.27c-2.44,3.46-2.1,3.47,1.76,4.7c0.35,0.11,0.61,0.34,0.89,0.52
		c0.21,0.14,0.38,0.3,1.01,0.82c-1.05-0.4-1.48-0.57-1.95-0.75c-0.5,0.49,0.38,0.86,0.22,1.29c1.02,2.45,1,4.89-0.31,7.3
		c-0.89,1.65-0.39,3.25,0.23,4.85c0.16,0.4,0.48,0.78-0.06,1.16c-1.83,0.35-1.38-0.76-1.91-1.25c-0.83-1.83-0.76-3.68-0.23-5.54
		c0.57-1.98,0.62-3.95-0.61-5.85c-0.29-0.45-0.41-1.01-1.46-1.27c0,1.29,0,2.52,0,4.12c-1.63-1.67-1.77-3.22-1.8-4.71
		c-0.03-1.22-0.89-1.92-2.27-2.55c-2.47-1.13-5.33-1.7-8.09-2.41c-0.33-0.36-1.14-0.03-1.47-0.51
		C270.12,471.63,271.04,471.94,271.91,472.03z"/>
	<path class="st21" d="M292.62,491.2c3.21-1.34,6.75-1.6,10.5-1.69c7.4-0.17,13.22-3.83,14.13-8.62c0.05-0.25,0.22-0.48,0.34-0.72
		c0.71-1.24,0.53-2.57,0.91-3.84c0.1-0.34-0.28-0.9,0.83-0.8c0.27,1.5,0.06,3,0.11,4.49c-0.51,1.31-0.62,2.67-1.18,3.97
		c-2.04,4.94-7.04,7.33-15.34,7.16c-3.59-0.07-7.01,0.11-10.14,1.36c-0.5,0.13-0.97,0.16-1.29-0.2
		C291.27,491.69,292.1,491.51,292.62,491.2z"/>
	<path class="st22" d="M270.37,487.14c-0.35-0.19-0.69-0.38-1.04-0.57c-1.12-0.74-2.3-1.46-3.38-2.23
		c-2.35-1.87-4.35-3.81-5.02-6.29c-0.58-2.17-2.5-3.9-5.38-5.14c-0.6-0.26-1.12-0.59-1.48-1.2c3.32,0.35,5.89,1.28,7.76,3.01
		c1.41,1.3,2.26,2.75,2.81,4.29c1.09,3.01,3.51,5.56,6.64,7.85C271.29,487.37,270.86,487.3,270.37,487.14z"/>
	<path class="st23" d="M291.6,492.07c0.24,0.32,0.72,0.37,1.19,0.44c-0.69,0.41-1.38,0.83-2.07,1.24c-1.45,1.51-1.71,1.48-3.8-0.45
		c-0.21-0.35-0.58-0.7-0.22-1.1c1.28-0.64,0.19-1.39,0.01-1.99c-0.43-1.41-0.58-2.79,0.15-4.13c1.31-2.38,0.94-4.78,0.52-7.2
		c1.62,2.27,1.16,4.59,0.17,6.87c-0.96,2.22-0.64,4.31,0.84,6.56c0.89-1.06,0.63-2.24,1.8-3.03c0.21,0.53-0.29,0.98-0.41,1.47
		c-0.12,0.5,0.14,0.67,0.88,0.44C291.13,491.41,290.94,491.94,291.6,492.07z"/>
	<path class="st24" d="M271.44,476.73c0.54,0.28,1.09,0.56,1.66,0.85c0.73-0.64-0.03-1.3,0.66-2.25c1.35,2.19,1.01,4.53,3.41,6.14
		c0.34,0.38,0.32,0.64-0.49,0.63c-1.97-1.64-3.94-3.29-5.91-4.93C270.67,476.81,270.89,476.66,271.44,476.73z"/>
	<path class="st25" d="M291.63,478.95c0.01-0.1,0.02-0.2,0.04-0.3c0.63-2.17-0.08-4.39,0.42-6.7c1.16,0.34,0.46,1.04,1.03,1.36
		c0.16,0.38-0.22,0.93,0.44,1.12c0.89,0.25,0.78-0.69,2.2-0.74c-1.4,2-3.19,3.78-3.13,5.9c-0.44,0.25-0.03,0.73-0.73,0.99
		C291.07,480.09,291.47,479.51,291.63,478.95z"/>
	<path class="st26" d="M287.23,493.13c0.2,0.15,0.44,0.29,0.6,0.46c0.86,0.93,1.82,0.9,2.89,0.16c-0.07,0.5,0.12,0.88,1.03,0.93
		c-1.66,0.92-3.32,1.85-4.97,2.77c-0.84-0.01-0.66-0.33-0.48-0.66c0.16-0.9,0.32-1.81,0.49-2.71
		C286.67,493.71,286.19,493.27,287.23,493.13z"/>
	<path class="st27" d="M271.91,472.03c-0.61,0.02-1.23,0.04-1.85,0.06c-0.11,0.42,0.81,0.28,0.82,0.63
		c-2.45-0.31-4.89-0.62-7.34-0.93c-0.2-0.42-1.59,0.01-1.26-0.59c0.25-0.45,1.18-0.27,1.84-0.1
		C266.62,471.74,269.49,471.12,271.91,472.03z"/>
	<path class="st28" d="M319.14,480.19c0.01-1.54,0.01-3.07,0.02-4.61c-0.15-0.12-0.26-0.26-0.28-0.42c-0.02-0.24,0.1-0.46,0.2-0.69
		c-0.35,0.08-0.12,0.63-0.82,0.42c0-1.14,0-2.28,0-3.5c1.56,1.31,2.12,7.11,1.02,9.83C318.82,480.9,318.97,480.54,319.14,480.19z"/>
	<path class="st29" d="M297.47,469.55c-0.64-0.22-0.98-0.09-1.02,0.38c-1.52-0.95-2.66-2.08-3.81-3.21
		c-0.34-0.33-0.37-0.57,0.4-0.58C294.53,467.27,296.42,468.18,297.47,469.55z"/>
	<path class="st30" d="M293.12,473.31c-0.24-0.3-0.48-0.6-0.8-1.01c-0.6,2.17,0.45,4.31-0.65,6.35c0-2.63,0-5.26,0-8.15
		C293.06,471.44,293.23,472.34,293.12,473.31z"/>
	<path class="st31" d="M312.46,480.56c0.45,0.02,1.19-0.04,0.45,0.43c-0.7,0.45-1.64,0.57-2.62,0.61c-0.9,0.04-1.68,0.29-2.17,0.82
		c-0.82,0.01-0.86-0.24-0.49-0.62c0.76-0.55,1.52-1.1,2.28-1.66C310.86,480.02,311.32,481.18,312.46,480.56z"/>
	<path class="st32" d="M312.46,480.56c-1.19,0.75-1.77-0.08-2.55-0.41c0.83-1,1.87-1.88,3.25-2.9c0.41,1.23-0.71,1.86-1.39,2.53
		C311.03,480.5,311.63,480.53,312.46,480.56z"/>
	<path class="st33" d="M307.64,481.8c0.05,0.25,0.06,0.5,0.49,0.62c-0.88,1.11-2.57,1.67-3.92,2.46c-0.62,0.32-0.93,0.2-0.97-0.29
		C304.7,483.67,306.17,482.73,307.64,481.8z"/>
	<path class="st34" d="M287.23,493.13c-0.53,0.24-0.29,0.64-0.45,0.95c-0.75-1.41-2.39-2.41-3.87-3.48c0.82-0.09,1.21,0.34,1.75,0.6
		c0.54,0.26,0.6-0.02,0.68-0.27c0.8,0.27,0.48,1.04,1.36,1.27C286.88,492.51,287.05,492.82,287.23,493.13z"/>
	<path class="st30" d="M291.63,478.95c0.04,0.42,0.08,0.83,0.13,1.31c0.32-0.24,0.59-0.46,0.87-0.67c0.05,1.11-0.52,2.08-1.67,2.92
		C290.89,481.29,290.96,480.1,291.63,478.95z"/>
	<path class="st35" d="M318.26,474.88c0.26-0.22,0.52-0.43,0.9-0.75c0,0.57,0,1.01,0,1.44c-0.59,1.1-0.67,2.26-0.87,3.41
		c-0.08,0.43,0.22,0.96-0.69,1.18C317.82,478.41,318.04,476.64,318.26,474.88z"/>
	<path class="st36" d="M284.86,463.59c0.93,2.17,1.23,4.29-1,6.25C285.05,467.82,285.08,465.71,284.86,463.59z"/>
	<path class="st37" d="M264.12,471.1c-0.47,0.03-0.94,0.06-1.4,0.09c0.28,0.2,0.55,0.39,0.83,0.59c-1.41,0-2.74-0.19-4.46-0.71
		C261.08,470.73,262.6,470.59,264.12,471.1z"/>
	<path class="st38" d="M276.68,482.1c0.42-0.13,0.44-0.39,0.49-0.63c1.1,0.76,1.5,1.7,1.62,2.71
		C277.8,483.6,277.06,482.92,276.68,482.1z"/>
	<path class="st39" d="M298.37,479.83c0.45-0.66,1.08-1.55,2.21-1.26c0.92,0.24,0.29,1.21,0.19,1.85c-0.06,0.4-0.28,0.81-0.87,1.06
		c-0.11-0.78,0.84-1.48,0.41-2.31C299.35,478.98,299.2,479.85,298.37,479.83z"/>
	<path class="st40" d="M303.23,484.6c0.21,0.26,0.58,0.29,0.97,0.29c-0.93,0.64-1.97,1.15-3.76,1.31
		C301.33,485.38,301.97,484.77,303.23,484.6z"/>
	<path class="st39" d="M297.39,479.22c0.38,0.43-0.82,0.89,0.08,1.31c0.12,0.56-0.7,0.82-0.95,1.26c-0.22,0.21-0.52,0.43-0.9,0.31
		c-0.37-0.12-0.35-0.4-0.11-0.64C296.07,480.7,296.33,479.82,297.39,479.22z"/>
	<path class="st41" d="M273.81,482.42c-1.47,0-2.95,0-4.42,0C270.84,481.59,272.32,481.89,273.81,482.42z"/>
	<path class="st42" d="M293.04,466.14c-0.13,0.19-0.26,0.38-0.4,0.58c-0.76-0.56-1.53-1.12-2.48-1.82
		C291.91,464.84,292.54,465.43,293.04,466.14z"/>
	<path class="st43" d="M271.44,476.73c-0.22,0.15-0.45,0.3-0.67,0.44c-0.78-0.45-1.56-0.91-2.67-1.55
		C270.05,475.49,270.68,476.19,271.44,476.73z"/>
	<path class="st44" d="M265.95,484.34c1.4,0.57,2.61,1.26,3.38,2.23C267.89,486.03,266.69,485.34,265.95,484.34z"/>
	<path class="st35" d="M319.14,480.19c0.05,0.34,0.1,0.69,0.14,1.03c-0.13,0.96-0.2,1.93-1.01,2.78
		C318.24,482.7,318.65,481.44,319.14,480.19z"/>
	<path class="st36" d="M285.81,462.96c-1.24-0.36-0.7,0.38-0.94,0.64c-0.63-0.61-0.83-1.28-0.84-2.09
		C285.05,461.88,285.75,462.26,285.81,462.96z"/>
	<path class="st45" d="M291.6,492.07c-0.35,0.09-0.9,0.31-1,0.24c-0.54-0.35,0.21-0.73,0.06-1.11c0.18-0.1,0.36-0.2,0.54-0.29
		c0.14,0.77,0.95,0.2,1.42,0.3C292.28,491.49,291.94,491.78,291.6,492.07z"/>
	<path class="st29" d="M297.81,471.47c1.58,0.54,1.97,1.48,2.03,2.54C299.16,473.16,298.49,472.31,297.81,471.47z"/>
	<path class="st40" d="M295.5,481.46c0.02,0.52,0.43,0.54,1.01,0.33c-0.11,0.61-0.56,1.02-1.66,1.18
		C294.7,482.37,294.93,481.89,295.5,481.46z"/>
	<path class="st44" d="M270.37,487.14c0.31-0.09,0.62-0.19,0.93-0.28c0.7-0.02,0.93,0.44,1.46,0.6c0.46,0.38,0.35,0.6-0.43,0.62
		C271.67,487.77,271.02,487.46,270.37,487.14z"/>
	<path class="st46" d="M272.32,488.08c0.38-0.14,0.46-0.36,0.43-0.62c0.67,0.23,1.72,0.5,1.16,1.03
		C273.41,488.97,272.72,488.48,272.32,488.08z"/>
	<path class="st47" d="M283.45,499.68c-3.95,1.34-8.51,0.24-9.5-2.29c-0.51-1.3,0.35-2.24,1.86-2.98c1.31-0.64,2.82-0.82,4.31-0.35
		c1.72,0.55,2.15,1.61,2.17,2.76c0.01,0.98-1.22,1.5-2.16,2.14c1.21,0.61,2.27,0.19,3.32,0.07c0.21-0.06,0.44-0.09,0.51,0.08
		C284.07,499.4,283.74,499.54,283.45,499.68z"/>
	<path class="st34" d="M283.45,499.68c0-0.21,0.48-0.42-0.01-0.63c1.22-0.61,2.04-1.43,2.85-2.25c0.16,0.22,0.32,0.44,0.48,0.66
		C285.97,498.38,285.15,499.31,283.45,499.68z"/>
</g>
</svg>
